<svg width="18" height="18" viewBox="0 0 18 18" fill="none" xmlns="http://www.w3.org/2000/svg">
<g clip-path="url(#clip0_756_87)">
<path d="M14.0625 16.3125H3.9375" stroke="black" stroke-linecap="round" stroke-linejoin="round"/>
<path d="M9 9.5625C7.75736 9.5625 6.75 8.55514 6.75 7.3125C6.75 6.06986 7.75736 5.0625 9 5.0625C10.2426 5.0625 11.25 6.06986 11.25 7.3125C11.25 8.55514 10.2426 9.5625 9 9.5625Z" stroke="black" stroke-linecap="round" stroke-linejoin="round"/>
<path d="M3.375 7.3125C3.375 12.375 9 16.3125 9 16.3125C9 16.3125 14.625 12.375 14.625 7.3125C14.625 5.82066 14.0324 4.38992 12.9775 3.33502C11.9226 2.28013 10.4918 1.6875 9 1.6875C7.50816 1.6875 6.07742 2.28013 5.02252 3.33502C3.96763 4.38992 3.375 5.82066 3.375 7.3125Z" stroke="black" stroke-linecap="round" stroke-linejoin="round"/>
</g>
<defs>
<clipPath id="clip0_756_87">
<rect width="18" height="18" fill="white" transform="matrix(-1 0 0 1 18 0)"/>
</clipPath>
</defs>
</svg>
